<?xml version="1.0" encoding="UTF-8" standalone="no"?>
<svg
   xmlns:dc="http://purl.org/dc/elements/1.1/"
   xmlns:cc="http://creativecommons.org/ns#"
   xmlns:rdf="http://www.w3.org/1999/02/22-rdf-syntax-ns#"
   xmlns:svg="http://www.w3.org/2000/svg"
   xmlns="http://www.w3.org/2000/svg"
   xmlns:sodipodi="http://sodipodi.sourceforge.net/DTD/sodipodi-0.dtd"
   xmlns:inkscape="http://www.inkscape.org/namespaces/inkscape"
   width="22.97451mm"
   height="17.842402mm"
   viewBox="0 0 22.97451 17.842402"
   version="1.1"
   id="svg857"
   inkscape:version="1.0.2-2 (e86c870879, 2021-01-15)"
   sodipodi:docname="flying.svg">
  <defs
     id="defs851" />
  <sodipodi:namedview
     id="base"
     pagecolor="#ffffff"
     bordercolor="#666666"
     borderopacity="1.0"
     inkscape:pageopacity="0.0"
     inkscape:pageshadow="2"
     inkscape:zoom="0.35"
     inkscape:cx="529.13068"
     inkscape:cy="336.57507"
     inkscape:document-units="mm"
     inkscape:current-layer="layer1"
     inkscape:document-rotation="0"
     showgrid="false"
     fit-margin-top="0"
     fit-margin-left="0"
     fit-margin-right="0"
     fit-margin-bottom="0"
     inkscape:window-width="1218"
     inkscape:window-height="700"
     inkscape:window-x="62"
     inkscape:window-y="0"
     inkscape:window-maximized="0" />
  <metadata
     id="metadata854">
    <rdf:RDF>
      <cc:Work
         rdf:about="">
        <dc:format>image/svg+xml</dc:format>
        <dc:type
           rdf:resource="http://purl.org/dc/dcmitype/StillImage" />
        <dc:title></dc:title>
      </cc:Work>
    </rdf:RDF>
  </metadata>
  <g
     inkscape:label="Layer 1"
     inkscape:groupmode="layer"
     id="layer1"
     transform="translate(34.165827,-59.114513)">
    <path
       id="path4951"
       style="fill:#000000;stroke-width:0.264583"
       d="m -28.112702,76.667949 c -0.62401,1.00585 -0.46243,-0.90258 -0.54985,-1.34023 -0.0397,-1.021223 -0.3283,-2.572413 -1.62574,-2.584893 -1.41639,-0.0742 -2.43407,1.02068 -3.35823,1.930843 -0.98161,0.76726 -0.27675,-1.371373 -0.24149,-1.869663 0.47866,-1.99749 1.10734,-3.97884 2.00896,-5.82758 0.9646,-1.5856 2.4459,-2.76405 3.76082,-4.04636 1.78081,-1.65843 4.03981,-2.66204 6.25049,-3.60762 0.82309,-0.37081 2.604,-0.35177 2.39241,0.95015 0.33383,0.74386 -0.95301,1.52578 -0.85428,0.4235 -0.91046,-1.13429 -1.34424,0.64158 -0.71113,1.31096 1.09325,2.11678 2.92333,3.75093 4.80731,5.16177 1.2152,0.92214 2.68044,1.50621 4.20775,1.59254 1.11413,0.2276 0.78395,1.67367 0.80238,2.5143 -0.23563,1.75405 -0.39081,3.552713 -0.98841,5.228893 -0.83016,1.15272 -1.19164,-0.86159 -1.73607,-1.34707 -1.07739,-1.415533 -3.07354,-2.240403 -4.80909,-1.699113 -1.45197,0.56044 -2.55777,1.778953 -3.22964,3.155633 -0.723,0.17166 -0.7834,-1.48221 -1.42019,-1.934 -0.68375,-0.827333 -2.09709,-0.866183 -2.84938,-0.0974 -0.69847,0.61478 -1.31636,1.32886 -1.85662,2.08529 z" />
  </g>
</svg>
